PathFileType	4	(X/Y/Z)	Patient4_TMGait_0pt6_02_right_32.trc.trc
DataRate	CameraRate	NumFrames	NumMarkers	Units	OrigDataRate	OrigDataStartFrame	OrigNumFrames
82.840236686391	82.840236686391	4	33	mm	82.840236686391	1	       141
Frame#	Time	Sacral			L.Shoulder			Chest			R.Shoulder			Neck			R.ASIS			L.ASIS			R.Thigh.Superior			R.Thigh.Lateral			R.Thigh.Inferior			R.Patella			L.Thigh.Superior			L.Thigh.Lateral			L.Thigh.Inferior			L.Patella			L.Shank.Superior			L.Shank.Lateral			L.Shank.Inferior			R.Shank.Superior			R.Shank.Lateral			R.Shank.Inferior			R.Heel			R.Midfoot.Superior			R.Midfoot.Lateral			R.Toe			L.Heel			L.Midfoot.Lateral			L.Midfoot.Superior			L.Toe			L.Elbow			L.Wrist			R.Elbow			R.Wrist			
		X1	Y1	Z1	X2	Y2	Z2	X3	Y3	Z3	X4	Y4	Z4	X5	Y5	Z5	X6	Y6	Z6	X7	Y7	Z7	X8	Y8	Z8	X9	Y9	Z9	X10	Y10	Z10	X11	Y11	Z11	X12	Y12	Z12	X13	Y13	Z13	X14	Y14	Z14	X15	Y15	Z15	X16	Y16	Z16	X17	Y17	Z17	X18	Y18	Z18	X19	Y19	Z19	X20	Y20	Z20	X21	Y21	Z21	X22	Y22	Z22	X23	Y23	Z23	X24	Y24	Z24	X25	Y25	Z25	X26	Y26	Z26	X27	Y27	Z27	X28	Y28	Z28	X29	Y29	Z29	X30	Y30	Z30	X31	Y31	Z31	X32	Y32	Z32	X33	Y33	Z33	

1	38.500000000000	829.501359625879	1018.608657492181	430.000921337513	1031.920801704751	1430.917707596597	233.452574323807	1137.522461415249	1351.839190620471	387.671371848366	1072.415057185201	1437.382322925522	563.076853871458	1048.336011638412	1492.554602653176	382.554154599842	1058.054466440489	940.392148018255	532.776724715751	1031.620713811414	961.081303192882	260.335943436111	1139.724026877994	776.530277028735	499.989662260146	1104.599884215497	656.110690308053	577.179185945172	1193.012655232751	618.874011308960	494.441326315449	1214.035265505282	503.592535499179	514.991653642417	1076.773469686004	753.072078930961	280.468251141483	981.584956854543	640.542924217368	231.566447260512	1068.600238531338	561.011128673257	287.488471035569	1068.222760248109	492.195904153039	297.487198291582	1042.089461851209	421.521531244677	291.436504318122	951.170859495638	305.675244443349	245.230153149143	1007.732619428350	196.358594429234	316.328170275626	1134.970184553038	430.687281032129	524.442779724744	1012.082222741653	396.638899233236	585.263959921807	993.501858334388	288.102005275055	538.005845012784	790.280555129650	229.552985660910	509.075938000037	957.384643784289	171.992818289927	554.538273462183	848.227442925025	176.253826507061	587.739993980415	1021.416074060670	63.135358185636	593.084009996036	882.382165741019	38.788750187560	363.249589647712	957.694774196203	34.948831396012	283.678777000812	1039.679334043330	96.811586679982	309.389347379529	1169.267440497574	46.128238260927	285.965610203789	966.020841429843	1084.225654222340	111.988969371717	1089.983680848521	853.416654469079	90.950783173798	1034.415151727812	1094.569461656509	694.283039269432	1159.340677873869	872.874439027591	632.403725052429	
2	38.512071428571	828.044786158463	1018.888724169089	429.169194184314	1032.829009260116	1430.994282406613	233.382662331618	1137.197679130153	1351.584033044981	388.213521552187	1071.299121968899	1437.166370122855	563.285980490639	1048.386159754260	1492.576859293209	382.601948287403	1056.504696117743	941.073277371538	532.862827672111	1030.782316599732	961.265234824020	260.290032863058	1140.065936416319	779.902295479425	499.801112093299	1107.408397363701	659.237129749048	577.479703863936	1196.133891430329	623.432943897534	494.435216294782	1219.690119292065	509.055875429561	515.207860340611	1073.805116391674	752.332652429594	280.913189341112	977.501993561123	640.853273334583	231.175105574633	1063.282884682575	560.289770892029	287.661439057792	1062.072836080474	491.597786833048	297.735155760883	1035.906891527954	421.269841965278	291.505145488615	944.609688771979	305.832186840829	245.128283768176	1000.564237170015	196.230950492737	316.270587276716	1142.985641517337	434.242884138586	525.082254278445	1021.690504608478	396.116601488338	586.166932275961	1006.856213575703	286.988882034040	539.110294625871	805.998438162312	221.475818782363	510.827654415098	974.880694539608	169.774151920626	555.849126721262	865.911572332606	170.278960031968	589.426725184778	1042.614207742831	63.269325717752	594.176055974302	874.701404510264	38.812549673790	363.266439586168	950.031377382365	34.984640169507	283.625414736493	1032.070981932754	96.742536777955	309.388912479259	1161.630207574746	45.899248689355	285.939061457685	971.021290682168	1084.631192213114	109.636831270587	1104.762822305961	860.394732781297	87.571131696696	1025.857715028918	1096.221489242661	696.247361214968	1135.974796920705	866.390875138726	645.350565377030	
3	38.524142857143	826.615248194219	1019.150671283819	428.382103781080	1033.728819359465	1431.053277751355	233.342439673681	1136.884851807585	1351.313996596604	388.773185346358	1070.207481607046	1436.937206686361	563.516708584840	1048.436279558923	1492.580059904771	382.677649813904	1054.960056069029	941.714360361748	532.974703447932	1030.006928095874	961.461573587271	260.262818087496	1140.352929178007	783.180142963249	499.633749664103	1110.130038343800	662.299687341599	577.807558405512	1199.122121220309	627.882373371448	494.431787107009	1225.174944354880	514.430502034425	515.434266393395	1070.880611103193	751.586883098001	281.385358211141	973.502213657981	641.134212569399	230.829306754178	1058.068918762150	559.569724824047	287.852258026756	1056.041882324215	491.002738270214	297.997673013249	1029.833625299193	421.008335049575	291.597193002694	938.158555450031	305.982641318253	245.037977887118	993.491979040122	196.094791548824	316.227548843346	1150.855045955011	437.719082760764	525.744818070110	1031.181915220311	395.498243949446	587.105234651028	1020.121945271229	285.796773313845	540.267273250269	821.672261296831	213.282719795144	512.648988843747	992.299370455895	167.503881248633	557.221816542009	883.548368552606	164.245901887678	591.196534718405	1063.756325543152	63.420982321203	595.379576758648	867.105988604501	38.837190817195	363.278001947210	942.450138524435	35.018797271372	283.576376267385	1024.546928360203	96.671726398447	309.393127500646	1154.078481400911	45.663035556653	285.914439487847	975.920243672102	1085.036555414262	107.358557706281	1119.321609662046	867.405750447168	84.310922215559	1017.425563903644	1097.870725528905	698.183464294124	1112.894683304461	860.306227123290	658.028522310930	
4	38.536214285714	825.237933485149	1019.379176154575	427.688616689982	1034.618266537366	1431.074472308264	233.371809431578	1136.598840916013	1351.011107205311	389.379694772566	1069.169280328494	1436.682335513485	563.800360142589	1048.494055123868	1492.543366293055	382.818152714640	1053.424268713412	942.274253064947	533.151258727693	1029.317578229649	961.667508797261	260.291686855852	1140.512457241823	786.250672461644	499.528445567942	1112.634075595168	665.206869547967	578.205614389143	1201.814421381527	632.080150227337	494.467258174506	1230.288674430393	519.613436799544	515.707357147938	1068.031827858884	750.825216336535	281.919870337295	969.642091236285	641.361266994715	230.577123369624	1053.024220352586	558.847818336677	288.088525171688	1050.206127511450	490.410912754603	298.297801892793	1023.934937831054	420.727433391066	291.741024769215	931.879530088365	306.123725884412	244.974383914291	986.557760951260	195.943431387657	316.216371853941	1158.430046045012	441.032824006899	526.470040885553	1040.503455297517	394.658067072474	588.145246719206	1033.305400958811	284.446932579730	541.536815117981	837.442224695657	204.816116243336	514.626291513728	1009.725165988408	165.145615368362	558.724062259197	901.281787252604	158.068893677511	593.130804989669	1084.956461965529	63.651607330421	596.767056357212	859.623292126105	38.867838573342	363.279288817912	934.975407846057	35.052154041134	283.535341227638	1017.134380250510	96.598344070169	309.406952771885	1146.638609467595	45.412133325955	285.893512477392	980.629654178073	1085.437299626692	105.237321804123	1133.481473944939	874.553786482318	81.306757020427	1009.192413136684	1099.548286889642	700.087069035918	1090.318755408419	855.017360771894	670.203770372485	
